<?xml version="1.0" encoding="UTF-8"?>
<!--Generator: Apple Native CoreSVG 175.5-->
<!DOCTYPE svg
PUBLIC "-//W3C//DTD SVG 1.1//EN"
       "http://www.w3.org/Graphics/SVG/1.1/DTD/svg11.dtd">
<svg version="1.1" xmlns="http://www.w3.org/2000/svg" xmlns:xlink="http://www.w3.org/1999/xlink" width="43.1396" height="58.4229">
 <g>
  <rect height="58.4229" opacity="0" width="43.1396" x="0" y="0"/>
  <path d="M0 30.957C0 42.9443 9.61914 52.5635 21.582 52.5635C33.5449 52.5635 43.1396 42.9443 43.1396 30.957C43.1396 29.7852 42.3096 28.9307 41.1133 28.9307C39.9658 28.9307 39.209 29.7852 39.209 30.957C39.209 40.7715 31.3721 48.6328 21.582 48.6328C11.792 48.6328 3.93066 40.7715 3.93066 30.957C3.93066 21.167 11.792 13.3301 21.582 13.3301C23.4375 13.3301 25.1709 13.4766 26.6113 13.8184L19.3115 21.0449C18.9453 21.4355 18.75 21.9238 18.75 22.4365C18.75 23.5596 19.5801 24.3896 20.6787 24.3896C21.2891 24.3896 21.7529 24.1943 22.0947 23.8281L32.1533 13.7207C32.5928 13.3057 32.7637 12.8174 32.7637 12.2559C32.7637 11.7188 32.5439 11.1816 32.1533 10.791L22.0947 0.585938C21.7529 0.195312 21.2646 0 20.6787 0C19.5801 0 18.75 0.878906 18.75 2.00195C18.75 2.51465 18.9453 3.00293 19.2871 3.39355L25.7812 9.81445C24.5117 9.57031 23.0713 9.39941 21.582 9.39941C9.61914 9.39941 0 18.9941 0 30.957Z" fill="#ffffff" fill-opacity="0.85"/>
 </g>
</svg>
